<?xml version="1.0" encoding="UTF-8"?>
<svg id="_圖層_1" data-name="圖層 1" xmlns="http://www.w3.org/2000/svg" viewBox="0 0 432.23 326.25">
  <defs>
    <style>
      .cls-1 {
        fill: #fff;
      }
    </style>
  </defs>
  <path d="M177.42.5c.12.03.91.8.98.97-8.09,29.24-17.67,58.31-26.01,87.57-4,14.04-13,39.12-8.05,52.8,4.93,13.59,21.48,16.03,33.48,10.65,16.1-7.21,22.73-24.86,27.87-40.47,9.85-29.91,16.2-62.77,26.82-92.05,5.35-14.75,15.55-18.7,30.55-19.5,31.34-1.67,64.98-1.19,61.85,39.71-1.92,25.05-22.85,49.01-46.29,56.7-1.83.6-14.83,3.17-14.82,3.94,11.83,6.26,17.9,17.96,25.74,28.15,1.1.22.6-.48.77-1.13,1.03-3.79,1.97-8.18,3.7-11.7.56-1.13,3.09-5.86,4.68-3.54.65.95.05,14.92.22,17.58.51,8.11,2.86,18.73,6.02,26.22.84,1.99,6.55,10.97,6.28,11.56-.81,1.75-6.69-.21-8.45-.73-15.22-4.53-24.42-15.08-32.64-28-9.28-14.6-16.45-35.27-36.84-36.18-.94.32-4.03,11.17-4.75,13.06-11.86,31-36.02,57.95-71.84,57.52-6.26-.07-11.97-1.73-17.99-2.73-13.99,38.96-40.5,75.64-82.25,86.9-15.4,4.15-37.26,4.87-52.07-1.55-1.5-.65-7.49-3.81-2.41-3.4,3.37.27,7.64,1.92,11.31,2.19,53.83,3.96,89.41-43.17,105.64-88.77.65-1.82,2.61-6.55,2.4-8.16-.14-1.06-3.07-5.62-3.74-7.37-7.3-19.01-.02-41.24,5.32-59.9,7.43-25.98,16.25-51.57,23.38-77.64-.6-5.76-16.13-4.86-14.3-10.94.16-.55,1.74-1.78,2.09-1.78h43.31ZM280.85,78.19c9.41-9.21,17.1-23.66,18.08-37.03,2.04-27.83-20.19-24.42-40.58-24.22l-21.5,73.55c16.27.76,31.91-.48,43.99-12.3Z"/>
  <path d="M349.19,310.13c-7.78,7.4-18.98,12.04-29.45,14.1-57.09,11.25-92.13-27.45-141.34-44.64-47.62-16.64-100.32-13.26-146.04,7.53l-1-1.01c13.66-8.3,29.62-14.25,45.13-18.4,48.77-13.03,95.99-6.78,141.44,13.73,34.57,15.61,79.64,49.5,118.79,31.36,11.05-5.12,19.93-14.81,19.51-27.69-.08-2.56-1.05-4.62-1.37-6.82-.14-.95-.29-1.42.62-2.05,7.31,11.57,2.97,25.07-6.3,33.88Z"/>
  <path d="M360.3,196.36c.35.11.75.77.74,1.2-2.62,9.66-4.94,19.43-7.47,29.12-3.3,12.67-7.59,35.15-15.88,44.76-9.47,10.97-27.19,12.33-39.12,4.71-1.16-1.99,2.55-6.63,4.05-8.02,4.15,2.41,8.04,4.48,13.01,4.57,13.8.24,17.28-13.28,19.41-24.36-2.86.82-5.09,2.92-7.92,3.87-10.99,3.66-22.66-.12-23.83-12.78-1.9-20.47,14.02-45.11,36.35-43.08,3.62.33,5.27,2.15,8.4,3.39-.01-.76-.11-1.57.47-2.18.28-.3,3.72-1.19,4.11-1.19,1.68,0,6.57-.35,7.7,0ZM334.43,204.17c-12.1,1.9-19.57,23.03-18.04,33.69,1.68,11.74,18.74,7.55,21.88-.97,2.01-5.48,5.79-19.42,6.65-25.11.98-6.49-4.96-8.48-10.5-7.61Z"/>
  <path d="M306.57,184.39l.34,1.87c-3.35,13.35-7.27,26.58-10.63,39.92-1.17,4.67-3.86,12.74-4.05,17.16-.17,3.96,1.58,3.33,4.79,3.76l.4,1.38c-4.61,5.37-15.51,6.44-17.99-1.61-15.89,11.72-35.87,6.48-30.41-16.46,3.73-15.69,19.08-28.8,35.73-23.98,1.11.32,3.19,1.97,4.1,1.26l4.15-15.85c-.22-4.07-7.25-2.45-5.41-5.15.78-1.14,16.43-2.25,18.97-2.32ZM266.41,219.65c-3.76,5.13-9.17,20.59-2.08,24.55,4.38,2.45,13.81-.44,16.21-4.89,1.19-2.21,5.36-18.22,5.77-21.17.51-3.65-1.27-4.58-4.68-5.2-5.99-1.1-11.74,1.96-15.22,6.72Z"/>
  <path d="M403.06,242.72c-4.85,4.76-10.03,7.68-16.9,8.85-39.97,6.84-28.18-50.92,2.76-58.84,8.43-2.16,23.86-1.11,23.64,10.6-.18,9.72-12.2,14.74-20.04,17.06-2.98.88-16.39,3.16-17.52,4.13s-1.33,6.02-1.27,7.6c.48,13.6,16.76,12.42,25.48,6.98,1.64-1.02,6.39-6.44,7.45-2.94.88,2.89-1.89,4.89-3.59,6.56ZM392.19,198.89c-5.91.85-11.04,6.37-13.44,11.58-.54,1.17-2.62,5.48-1.38,6.37,1.93,1.38,27.55-6.27,22.57-15.85-1.33-2.56-5.25-2.46-7.75-2.1Z"/>
  <path d="M234.29,246.24c-13.23,11.08-39.95,10.86-38.84-11.65.85-17.24,16.52-29.94,33.49-28.63,22.76,1.75,18.56,29.22,5.35,40.28ZM221.81,212.83c-8.86,1.67-14.15,16.78-13.85,24.69.44,11.74,12.3,10.98,18.3,3.34s12.2-31.17-4.45-28.03Z"/>
  <path d="M198.79,186.3c.53,1.15.13,2.27-.09,3.42-3.42,17.62-10.92,35.78-14.25,53.62-.43,1.69.29,3.68,2.13,4.02.86.16,3.96-.43,3.6,1.21-5.29,6.73-20.68,6.87-18.25-4.76l12.97-49.15c.04-.88,0-2.32-.62-2.98-1.17-1.26-5.39-.58-4.67-2.76.64-.82,1.73-.98,2.69-1.16,2.01-.38,15.71-1.91,16.5-1.45Z"/>
  <path d="M421.53,180.11c7.38-1.53,13.1,5.18,9.7,12.1-4.67,9.49-20.37,2.03-14.47-8.22.86-1.5,3.07-3.53,4.78-3.88ZM423.48,181.06c-10.92.97-6.95,17.33,2.49,14.07,7.99-2.76,5.5-14.78-2.49-14.07Z"/>
  <path class="cls-1" d="M280.85,78.19c-12.09,11.82-27.73,13.06-43.99,12.3l21.5-73.55c20.39-.2,42.62-3.62,40.58,24.22-.98,13.37-8.67,27.82-18.08,37.03Z"/>
  <path class="cls-1" d="M334.43,204.17c5.53-.87,11.48,1.12,10.5,7.61-.86,5.69-4.64,19.63-6.65,25.11-3.14,8.52-20.2,12.71-21.88.97-1.53-10.66,5.93-31.78,18.04-33.69Z"/>
  <path class="cls-1" d="M266.41,219.65c3.48-4.76,9.23-7.82,15.22-6.72,3.41.63,5.19,1.56,4.68,5.2-.42,2.95-4.59,18.97-5.77,21.17-2.4,4.45-11.83,7.34-16.21,4.89-7.09-3.96-1.67-19.41,2.08-24.55Z"/>
  <path class="cls-1" d="M392.19,198.89c2.5-.36,6.42-.46,7.75,2.1,4.98,9.58-20.64,17.24-22.57,15.85-1.25-.89.84-5.2,1.38-6.37,2.4-5.21,7.53-10.73,13.44-11.58Z"/>
  <path class="cls-1" d="M221.81,212.83c16.64-3.14,10.19,20.71,4.45,28.03s-17.86,8.4-18.3-3.34c-.29-7.91,5-23.02,13.85-24.69Z"/>
  <path class="cls-1" d="M423.48,181.06c7.99-.71,10.48,11.32,2.49,14.07-9.44,3.26-13.4-13.11-2.49-14.07ZM420.7,183.85v8.66h1.44c.04-1.07-.47-3.31,1.18-3.36,2.38-.07,1.85,2.92,3.63,3.84.95-1.43-.84-2.77-.79-3.61.03-.61,1.77-2.04,1.66-3.3-.29-3.19-4.99-2.1-7.11-2.24Z"/>
  <path d="M420.7,183.85c2.13.14,6.83-.95,7.11,2.24.11,1.25-1.62,2.68-1.66,3.3-.04.83,1.74,2.17.79,3.61-1.77-.92-1.25-3.91-3.63-3.84-1.66.05-1.14,2.29-1.18,3.36h-1.44v-8.67ZM425.88,187.59c.53-.8.81-1.69-.08-2.34l-3.65-.45.46,3.17,3.28-.38Z"/>
  <path class="cls-1" d="M425.88,187.59l-3.28.38-.46-3.17,3.65.45c.89.65.61,1.54.08,2.34Z"/>
</svg>